<svg width="1357" height="1703" viewBox="0 0 1357 1703" fill="none" xmlns="http://www.w3.org/2000/svg">
<mask id="path-1-outside-1" maskUnits="userSpaceOnUse" x="-0.0536499" y="0.124756" width="1357" height="1703" fill="black">
<rect fill="white" x="-0.0536499" y="0.124756" width="1357" height="1703"/>
<path d="M1.41104 5.53796C3.73437 9.56238 6.0577 13.5869 8.8457 17.6113C13.0277 24.5104 16.745 32.5592 20.927 40.608C25.109 48.657 28.3617 57.8557 32.5437 67.0544C36.261 76.2531 39.9783 86.6017 43.6957 96.9502C50.6657 118.222 58.1003 141.794 65.0703 166.515C72.505 191.812 79.9396 218.258 89.233 246.429C98.9909 274.025 110.608 302.196 126.406 329.218C130.588 336.117 134.306 343.016 138.952 349.34C143.599 355.664 148.246 361.988 152.428 368.312C162.65 380.385 172.873 393.034 184.49 403.382C207.258 425.229 234.209 443.052 262.089 458C290.433 472.947 319.707 485.596 349.446 499.969C378.72 514.342 408.459 531.589 434.48 554.586C440.985 560.91 447.026 566.659 453.531 572.983L462.825 583.332L467.471 588.506L469.795 591.381C470.259 591.956 470.724 592.531 470.724 592.531L471.653 593.68C477.229 601.154 482.805 608.628 487.917 616.677C492.563 624.726 498.139 632.775 502.786 641.399C521.373 675.894 534.848 714.414 546.464 754.658C558.546 794.902 569.233 836.296 584.102 877.116C585.961 882.29 587.82 887.464 589.678 892.064L596.184 907.011C600.366 916.785 605.477 925.984 610.124 935.757C612.447 940.357 615.235 944.956 618.023 949.555L626.387 963.354C629.175 967.953 632.428 971.402 635.216 976.002L644.509 988.65C670.066 1020.85 701.198 1046.72 733.725 1065.69C766.252 1085.24 800.172 1099.03 832.234 1114.56C864.296 1130.08 894.964 1147.33 921.915 1170.32C928.885 1176.07 934.461 1182.4 940.966 1188.15C947.007 1194.47 953.512 1201.94 959.553 1209.42L960.482 1210.57C960.947 1211.14 960.017 1209.99 960.482 1210.57L960.947 1211.14L962.805 1214.02L966.987 1219.77L974.887 1230.69C979.998 1238.16 984.645 1246.21 989.291 1254.26C1007.41 1286.46 1019.96 1322.1 1031.11 1358.32C1042.26 1394.54 1051.56 1431.91 1063.64 1467.56C1075.25 1503.2 1089.66 1537.12 1107.78 1567.59C1112.43 1575.07 1117.07 1583.12 1121.72 1589.44C1124.04 1592.89 1126.37 1595.76 1128.69 1599.21L1131.94 1603.81L1132.87 1604.96L1133.34 1605.54C1132.87 1604.96 1134.27 1606.69 1134.27 1606.69L1136.13 1608.99C1141.7 1615.31 1146.81 1621.06 1151.92 1627.39C1157.5 1633.13 1163.08 1638.31 1168.65 1643.48C1191.42 1664.18 1215.12 1679.7 1237.89 1692.35C1243.93 1695.8 1249.97 1698.68 1256.01 1702.12L1355.91 1702.12C1342.9 1695.8 1328.96 1689.48 1314.56 1683.15C1294.11 1673.95 1272.74 1665.33 1251.36 1653.83C1229.99 1642.33 1208.15 1628.54 1188.17 1610.71C1183.06 1606.11 1177.95 1601.51 1173.3 1596.34C1168.65 1591.17 1163.54 1585.99 1158.89 1580.24L1157.04 1578.52L1156.57 1577.94L1155.64 1576.79L1151.92 1572.19C1149.6 1569.32 1147.28 1565.87 1144.95 1562.42C1139.84 1556.1 1136.13 1549.77 1132.41 1543.45C1116.15 1517.58 1102.67 1486.53 1091.05 1452.61C1079.44 1418.69 1069.21 1382.47 1057.6 1345.1C1045.52 1307.73 1031.11 1269.79 1011.13 1234.72C1005.55 1226.09 1000.44 1217.47 994.867 1209.42L986.039 1197.35L981.392 1191.6L979.069 1188.72L978.604 1188.15L977.675 1187L976.281 1185.85C969.775 1178.95 964.199 1172.05 957.229 1165.15C949.795 1158.25 942.825 1151.35 935.39 1145.03C905.651 1120.31 872.66 1103.06 839.669 1088.11C806.678 1073.16 773.686 1059.94 742.089 1042.12C710.956 1024.29 681.682 1001.3 657.52 971.977L648.691 960.479C645.903 956.454 642.65 952.43 639.862 948.406L631.963 936.332C629.64 932.308 626.852 928.283 624.529 923.684C619.882 914.485 614.77 906.437 611.053 896.663L604.548 882.865C602.689 878.265 600.831 873.091 598.972 868.492C584.103 829.972 572.95 789.153 559.94 748.334C547.394 708.089 532.989 667.845 513.008 632.2C508.362 623.001 502.321 614.953 497.21 606.329C491.634 598.28 485.593 590.231 479.553 582.757L478.623 581.032C477.694 579.882 477.694 579.882 477.229 579.308L474.906 576.433L470.259 571.259L460.966 560.91C454.461 554.011 447.491 548.262 440.521 541.363C412.641 517.216 381.973 500.543 352.234 486.745C322.031 472.947 292.292 460.874 264.412 447.076C236.532 433.278 210.511 416.03 187.742 395.333C176.126 385.56 165.903 373.486 156.145 361.988C151.498 355.664 146.852 349.34 142.205 343.591C138.023 337.266 133.841 330.942 130.124 324.618C114.79 298.747 102.708 270.576 92.4856 243.555C82.7276 216.533 74.8283 189.512 67.3936 164.791C59.959 139.494 52.5243 116.497 45.0897 95.2253C40.9077 84.8768 37.1903 74.5284 33.473 65.3297C29.291 56.131 25.5737 46.9323 21.3917 38.8834C17.2097 30.8345 13.4924 22.7856 9.31036 16.4615C6.52237 11.8622 3.73437 7.2627 0.94637 3.23828L0.94637 5.53796L1.41104 5.53796Z"/>
</mask>
<path d="M1.41104 5.53796C3.73437 9.56238 6.0577 13.5869 8.8457 17.6113C13.0277 24.5104 16.745 32.5592 20.927 40.608C25.109 48.657 28.3617 57.8557 32.5437 67.0544C36.261 76.2531 39.9783 86.6017 43.6957 96.9502C50.6657 118.222 58.1003 141.794 65.0703 166.515C72.505 191.812 79.9396 218.258 89.233 246.429C98.9909 274.025 110.608 302.196 126.406 329.218C130.588 336.117 134.306 343.016 138.952 349.34C143.599 355.664 148.246 361.988 152.428 368.312C162.65 380.385 172.873 393.034 184.49 403.382C207.258 425.229 234.209 443.052 262.089 458C290.433 472.947 319.707 485.596 349.446 499.969C378.72 514.342 408.459 531.589 434.48 554.586C440.985 560.91 447.026 566.659 453.531 572.983L462.825 583.332L467.471 588.506L469.795 591.381C470.259 591.956 470.724 592.531 470.724 592.531L471.653 593.68C477.229 601.154 482.805 608.628 487.917 616.677C492.563 624.726 498.139 632.775 502.786 641.399C521.373 675.894 534.848 714.414 546.464 754.658C558.546 794.902 569.233 836.296 584.102 877.116C585.961 882.29 587.82 887.464 589.678 892.064L596.184 907.011C600.366 916.785 605.477 925.984 610.124 935.757C612.447 940.357 615.235 944.956 618.023 949.555L626.387 963.354C629.175 967.953 632.428 971.402 635.216 976.002L644.509 988.65C670.066 1020.85 701.198 1046.72 733.725 1065.69C766.252 1085.24 800.172 1099.03 832.234 1114.56C864.296 1130.08 894.964 1147.33 921.915 1170.32C928.885 1176.07 934.461 1182.4 940.966 1188.15C947.007 1194.47 953.512 1201.94 959.553 1209.42L960.482 1210.57C960.947 1211.14 960.017 1209.99 960.482 1210.57L960.947 1211.14L962.805 1214.02L966.987 1219.77L974.887 1230.69C979.998 1238.16 984.645 1246.21 989.291 1254.26C1007.41 1286.46 1019.96 1322.1 1031.11 1358.32C1042.26 1394.54 1051.56 1431.91 1063.64 1467.56C1075.25 1503.2 1089.66 1537.12 1107.78 1567.59C1112.43 1575.07 1117.07 1583.12 1121.72 1589.44C1124.04 1592.89 1126.37 1595.76 1128.69 1599.21L1131.94 1603.81L1132.87 1604.96L1133.34 1605.54C1132.87 1604.96 1134.27 1606.69 1134.27 1606.69L1136.13 1608.99C1141.7 1615.31 1146.81 1621.06 1151.92 1627.39C1157.5 1633.13 1163.08 1638.31 1168.65 1643.48C1191.42 1664.18 1215.12 1679.7 1237.89 1692.35C1243.93 1695.8 1249.97 1698.68 1256.01 1702.12L1355.91 1702.12C1342.9 1695.8 1328.96 1689.48 1314.56 1683.15C1294.11 1673.95 1272.74 1665.33 1251.36 1653.83C1229.99 1642.33 1208.15 1628.54 1188.17 1610.71C1183.06 1606.11 1177.95 1601.51 1173.3 1596.34C1168.65 1591.17 1163.54 1585.99 1158.89 1580.24L1157.04 1578.52L1156.57 1577.94L1155.64 1576.79L1151.92 1572.19C1149.6 1569.32 1147.28 1565.87 1144.95 1562.42C1139.84 1556.1 1136.13 1549.77 1132.41 1543.45C1116.15 1517.58 1102.67 1486.53 1091.05 1452.61C1079.44 1418.69 1069.21 1382.47 1057.6 1345.1C1045.52 1307.73 1031.11 1269.79 1011.13 1234.72C1005.55 1226.09 1000.44 1217.47 994.867 1209.42L986.039 1197.35L981.392 1191.6L979.069 1188.72L978.604 1188.15L977.675 1187L976.281 1185.85C969.775 1178.95 964.199 1172.05 957.229 1165.15C949.795 1158.25 942.825 1151.35 935.39 1145.03C905.651 1120.31 872.66 1103.06 839.669 1088.11C806.678 1073.16 773.686 1059.94 742.089 1042.12C710.956 1024.29 681.682 1001.3 657.52 971.977L648.691 960.479C645.903 956.454 642.65 952.43 639.862 948.406L631.963 936.332C629.64 932.308 626.852 928.283 624.529 923.684C619.882 914.485 614.77 906.437 611.053 896.663L604.548 882.865C602.689 878.265 600.831 873.091 598.972 868.492C584.103 829.972 572.95 789.153 559.94 748.334C547.394 708.089 532.989 667.845 513.008 632.2C508.362 623.001 502.321 614.953 497.21 606.329C491.634 598.28 485.593 590.231 479.553 582.757L478.623 581.032C477.694 579.882 477.694 579.882 477.229 579.308L474.906 576.433L470.259 571.259L460.966 560.91C454.461 554.011 447.491 548.262 440.521 541.363C412.641 517.216 381.973 500.543 352.234 486.745C322.031 472.947 292.292 460.874 264.412 447.076C236.532 433.278 210.511 416.03 187.742 395.333C176.126 385.56 165.903 373.486 156.145 361.988C151.498 355.664 146.852 349.34 142.205 343.591C138.023 337.266 133.841 330.942 130.124 324.618C114.79 298.747 102.708 270.576 92.4856 243.555C82.7276 216.533 74.8283 189.512 67.3936 164.791C59.959 139.494 52.5243 116.497 45.0897 95.2253C40.9077 84.8768 37.1903 74.5284 33.473 65.3297C29.291 56.131 25.5737 46.9323 21.3917 38.8834C17.2097 30.8345 13.4924 22.7856 9.31036 16.4615C6.52237 11.8622 3.73437 7.2627 0.94637 3.23828L0.94637 5.53796L1.41104 5.53796Z" stroke="white" stroke-opacity="0.1" stroke-width="1.5" mask="url(#path-1-outside-1)"/>
</svg>
